<svg width="134" height="47" viewBox="0 0 134 47" fill="none" xmlns="http://www.w3.org/2000/svg">
<g clip-path="url(#clip0_6105_12480)">
<mask id="mask0_6105_12480" style="mask-type:luminance" maskUnits="userSpaceOnUse" x="-10" y="-16" width="148" height="190">
<path d="M137.245 -15.2319H-9.85471V173.263H137.245V-15.2319Z" fill="white"/>
</mask>
<g mask="url(#mask0_6105_12480)">
<mask id="mask1_6105_12480" style="mask-type:luminance" maskUnits="userSpaceOnUse" x="-10" y="-16" width="148" height="190">
<path d="M137.245 -15.2319H-9.85471V173.263H137.245V-15.2319Z" fill="white"/>
</mask>
<g mask="url(#mask1_6105_12480)">
<path d="M4.05004 13.6565V24.9971C4.05004 28.2815 4.8913 31.1732 8.82597 31.1732C12.7606 31.1732 13.6019 28.2815 13.6019 24.9971V13.6565H17.5846V25.4351C17.5846 31.0423 14.9287 34.8503 8.82597 34.8503C2.72326 34.8503 0.0697021 31.0423 0.0697021 25.4351V13.6565H4.05004Z" fill="#0461A6"/>
<path d="M21.1227 33.6317V21.8508C21.1227 16.2459 23.7667 12.4355 29.879 12.4355C35.9913 12.4355 38.6377 16.2435 38.6377 21.8508V33.6317H34.6549V22.2887C34.6549 19.0043 33.8161 16.115 29.879 16.115C25.9419 16.115 25.1031 19.0043 25.1031 22.2887V33.6317H21.1227Z" fill="#0461A6"/>
<path d="M46.4637 34.1458H42.4834V13.6565H46.4637V34.1458ZM47.2161 7.92309C47.2161 8.6433 46.9271 9.33401 46.4128 9.84328C45.8985 10.3525 45.2009 10.6387 44.4736 10.6387C43.7462 10.6387 43.0487 10.3525 42.5343 9.84328C42.02 9.33401 41.7311 8.6433 41.7311 7.92309C41.7311 7.56647 41.802 7.21335 41.9398 6.88388C42.0777 6.55442 42.2797 6.25505 42.5343 6.00289C42.789 5.75072 43.0913 5.5507 43.4241 5.41423C43.7568 5.27776 44.1134 5.20752 44.4736 5.20752C44.8337 5.20752 45.1903 5.27776 45.5231 5.41423C45.8558 5.5507 46.1581 5.75072 46.4128 6.00289C46.6675 6.25505 46.8695 6.55442 47.0073 6.88388C47.1451 7.21335 47.2161 7.56647 47.2161 7.92309Z" fill="#0461A6"/>
<path d="M55.1768 34.1458H51.194V17.3288H49.0284V13.6493H51.194V5.81201H55.1768V13.6493H59.0682V17.3288H55.1768V34.1458Z" fill="#0461A6"/>
<path d="M75.4318 21.5771C74.9511 18.5116 72.9104 16.4529 69.7257 16.4529C66.6298 16.4529 64.3296 18.6425 63.8441 21.5771H75.4318ZM63.623 24.5544C63.6686 28.0578 66.0554 31.3421 69.8579 31.3421C72.9104 31.3421 74.5473 29.8094 76.0519 27.358L79.4169 29.2406C78.4841 30.9521 77.0964 32.3783 75.4039 33.365C73.7113 34.3516 71.7785 34.8611 69.8146 34.8383C63.4908 34.8383 59.6426 30.1093 59.6426 24.0665C59.6426 17.7596 63.0485 13.0305 69.7257 13.0305C76.3163 13.0305 79.4121 17.8476 79.4121 23.9356V24.5473L63.623 24.5544Z" fill="#0461A6"/>
<path d="M98.0327 19.4755C96.4391 17.681 94.4946 16.7171 92.1055 16.7171C88.2141 16.7171 85.2072 20.1323 85.2072 23.8975C85.2072 28.1029 88.1684 31.1683 92.3699 31.1683C94.6701 31.1683 96.5281 30.1164 98.0327 28.4528V33.4888C96.2798 34.4186 94.3147 34.8858 92.3266 34.8454C86.2215 34.8454 81.2244 30.2045 81.2244 24.0736C81.2244 17.7238 86.1782 13.0376 92.5477 13.0376C94.4033 13.0376 96.4391 13.4755 98.0327 14.3966V19.4755Z" fill="#0461A6"/>
<path d="M105.205 25.9038V30.7685C105.205 32.1132 105.611 33.3579 107.214 33.3579C108.818 33.3579 109.224 32.1132 109.224 30.7685V25.9038H110.26V31.1184C110.26 32.9319 109.123 34.3218 107.214 34.3218C105.306 34.3218 104.167 32.9319 104.167 31.1184V25.9038H105.205Z" fill="#E02227"/>
<path d="M113.139 33.6864C113.145 33.773 113.132 33.8597 113.102 33.9413C113.072 34.0228 113.026 34.0975 112.966 34.1607C112.906 34.2238 112.834 34.2742 112.753 34.3086C112.673 34.343 112.586 34.3608 112.499 34.3608C112.411 34.3608 112.324 34.343 112.244 34.3086C112.164 34.2742 112.091 34.2238 112.031 34.1607C111.971 34.0975 111.925 34.0228 111.895 33.9413C111.865 33.8597 111.853 33.773 111.858 33.6864C111.868 33.5249 111.94 33.3733 112.059 33.2624C112.178 33.1516 112.335 33.0898 112.499 33.0898C112.662 33.0898 112.819 33.1516 112.938 33.2624C113.057 33.3733 113.129 33.5249 113.139 33.6864Z" fill="#E02227"/>
<path d="M118.581 27.4603C118.457 27.2177 118.266 27.0155 118.029 26.8779C117.793 26.7403 117.521 26.6731 117.247 26.6844C116.584 26.6844 115.855 27.1342 115.855 27.8554C115.855 28.5003 116.495 28.8383 117.014 29.0454L117.61 29.2834C118.79 29.7427 119.675 30.3877 119.675 31.7657C119.675 33.2627 118.504 34.3361 117.014 34.3361C116.373 34.3336 115.756 34.0967 115.282 33.6709C114.807 33.2452 114.508 32.6607 114.442 32.0299L115.49 31.8085C115.485 32.018 115.523 32.2263 115.601 32.4209C115.68 32.6156 115.797 32.7926 115.946 32.9414C116.095 33.0902 116.272 33.2078 116.468 33.2871C116.664 33.3663 116.874 33.4057 117.086 33.4029C117.297 33.4 117.506 33.3549 117.7 33.2703C117.893 33.1857 118.067 33.0634 118.212 32.9105C118.357 32.7577 118.469 32.5776 118.542 32.3809C118.615 32.1842 118.647 31.9749 118.636 31.7657C118.636 30.8803 117.915 30.4971 117.194 30.202L116.622 29.964C115.661 29.5594 114.81 29.0239 114.81 27.8768C114.81 26.5416 116.012 25.7348 117.261 25.7348C117.7 25.7266 118.132 25.8388 118.51 26.0589C118.888 26.279 119.197 26.5985 119.403 26.9819L118.581 27.4603Z" fill="#E02227"/>
<path d="M122.256 33.6863C122.257 33.8121 122.219 33.9352 122.149 34.04C122.079 34.1448 121.979 34.2266 121.862 34.2751C121.744 34.3235 121.615 34.3365 121.491 34.3122C121.366 34.288 121.251 34.2276 121.161 34.1389C121.071 34.0501 121.01 33.9369 120.985 33.8135C120.96 33.6902 120.973 33.5623 121.021 33.446C121.07 33.3298 121.152 33.2304 121.258 33.1605C121.363 33.0906 121.487 33.0532 121.614 33.0532C121.784 33.0538 121.946 33.1207 122.067 33.2392C122.187 33.3577 122.255 33.5184 122.256 33.6863Z" fill="#E02227"/>
<path d="M127.09 27.8055L125.611 31.1375H128.57L127.09 27.8055ZM125.181 32.0895L124.232 34.1553H123.117L127.09 25.5564L131.065 34.1482H129.95L128.989 32.0823L125.181 32.0895Z" fill="#E02227"/>
<path d="M133.204 33.6863C133.205 33.8121 133.168 33.9352 133.097 34.04C133.027 34.1448 132.927 34.2266 132.81 34.2751C132.693 34.3235 132.564 34.3365 132.439 34.3122C132.314 34.288 132.2 34.2276 132.11 34.1389C132.02 34.0501 131.958 33.9369 131.933 33.8135C131.908 33.6902 131.921 33.5623 131.97 33.446C132.018 33.3298 132.1 33.2304 132.206 33.1605C132.311 33.0906 132.436 33.0532 132.563 33.0532C132.732 33.0538 132.895 33.1207 133.015 33.2392C133.135 33.3577 133.203 33.5184 133.204 33.6863Z" fill="#E02227"/>
<path d="M109.572 16.8622C102.39 19.9562 101.037 29.8522 101.037 29.8522C101.037 29.8522 98.6336 15.7293 109.572 11.4001V16.8622Z" fill="#E02227"/>
<path d="M125.607 5.83102V-0.045166C125.607 -0.045166 134.666 2.53236 134.041 15.9341C134.041 15.9341 131.854 7.37802 125.607 5.83102Z" fill="#07A3D8"/>
<path d="M125.607 5.72878C118.838 1.60426 109.572 5.21232 109.572 5.21232V10.8838C109.572 10.8838 118.838 7.27577 125.607 11.3979V5.72878Z" fill="#0C61A7"/>
<path d="M3.49001 46.8715V41.0262H6.06906C6.6514 41.0137 7.22832 41.1394 7.75157 41.3928C8.21709 41.6208 8.60853 41.9738 8.88125 42.4114C9.1461 42.8797 9.28517 43.4074 9.28517 43.9441C9.28517 44.4808 9.1461 45.0086 8.88125 45.4768C8.60943 45.9164 8.21787 46.2711 7.75157 46.5002C7.22795 46.7526 6.65129 46.8782 6.06906 46.8667L3.49001 46.8715ZM4.57643 45.9528H6.01858C6.41711 45.9629 6.81217 45.8771 7.1699 45.7029C7.48227 45.5454 7.74252 45.3026 7.91982 45.0032C8.09345 44.6784 8.18423 44.3164 8.18423 43.9489C8.18423 43.5813 8.09345 43.2194 7.91982 42.8945C7.74159 42.5971 7.48146 42.356 7.1699 42.1996C6.81237 42.0245 6.41731 41.938 6.01858 41.9473H4.57643V45.9528Z" fill="#444747"/>
<path d="M29.7083 45.9625H33.0373V46.8716H28.6123V41.0264H32.9171V41.9355H29.7083V45.9625ZM29.6242 43.4587H32.5566V44.3584H29.6242V43.4587Z" fill="#444747"/>
<path d="M55.232 46.9547C54.7838 46.9563 54.3379 46.8896 53.9101 46.7572C53.5448 46.6564 53.2033 46.4849 52.9054 46.2526L53.2851 45.4101C53.5503 45.6096 53.8466 45.7648 54.1624 45.8695C54.5055 45.9916 54.8675 46.0536 55.232 46.0527C55.4859 46.0607 55.7393 46.0269 55.982 45.9528C56.1455 45.9041 56.2915 45.8099 56.4026 45.6814C56.4917 45.5716 56.5393 45.4344 56.5372 45.2935C56.5406 45.2122 56.525 45.1313 56.4917 45.057C56.4583 44.9827 56.4081 44.917 56.3449 44.8651C56.1968 44.746 56.0259 44.6578 55.8425 44.6057C55.6382 44.5414 55.4099 44.4819 55.1599 44.4272C54.91 44.3724 54.66 44.3058 54.41 44.2296C54.1716 44.1601 53.9425 44.0626 53.7274 43.9393C53.5251 43.8219 53.3538 43.6588 53.2274 43.4633C53.0891 43.231 53.0215 42.964 53.0328 42.6945C53.0309 42.3856 53.1203 42.0828 53.2899 41.8235C53.4828 41.541 53.7553 41.3208 54.0735 41.1904C54.4967 41.0176 54.9524 40.9365 55.4099 40.9524C55.7651 40.9518 56.119 40.9966 56.4627 41.0857C56.7848 41.1629 57.0918 41.2924 57.3712 41.4688L57.0275 42.3114C56.7724 42.1596 56.4974 42.0435 56.2103 41.9663C55.9467 41.8925 55.6742 41.8541 55.4003 41.852C55.1497 41.8447 54.8998 41.8818 54.6624 41.9615C54.5008 42.015 54.3582 42.1133 54.2514 42.2447C54.1634 42.3596 54.1169 42.5004 54.1192 42.6446C54.1165 42.7258 54.1322 42.8066 54.165 42.8812C54.1979 42.9557 54.2471 43.022 54.3091 43.0753C54.4551 43.1937 54.6246 43.2805 54.8066 43.33C55.0109 43.3919 55.2416 43.4514 55.494 43.5085C55.7464 43.5656 55.9964 43.6323 56.2488 43.706C56.4861 43.7732 56.7145 43.8683 56.929 43.9893C57.1329 44.1036 57.3041 44.2674 57.4265 44.4653C57.5615 44.6953 57.6274 44.9587 57.6164 45.2245C57.6187 45.5313 57.5292 45.8319 57.3592 46.0884C57.1653 46.3709 56.892 46.591 56.5732 46.7215C56.1478 46.8924 55.691 46.9735 55.232 46.9595" fill="#444747"/>
<path d="M80.2462 41.031H79.1501V46.8715H80.2462V41.031Z" fill="#444747"/>
<path d="M104.53 46.9549C104.097 46.9597 103.668 46.8847 103.263 46.7336C102.889 46.5931 102.546 46.3803 102.256 46.1077C101.969 45.8401 101.742 45.5158 101.59 45.1557C101.273 44.3852 101.273 43.5224 101.59 42.7519C101.743 42.3916 101.971 42.0673 102.258 41.7999C102.552 41.5273 102.898 41.3146 103.275 41.1739C103.681 41.0229 104.112 40.9478 104.546 40.9526C105.009 40.9453 105.468 41.0261 105.9 41.1906C106.29 41.3461 106.637 41.5908 106.914 41.9046L106.224 42.5734C106.014 42.3564 105.762 42.1849 105.481 42.0698C105.201 41.9547 104.9 41.8984 104.597 41.9046C104.304 41.9014 104.013 41.9531 103.739 42.0569C103.484 42.1501 103.252 42.2943 103.056 42.4806C102.864 42.6648 102.713 42.887 102.614 43.1327C102.507 43.3949 102.454 43.6757 102.458 43.9585C102.454 44.2383 102.507 44.5159 102.614 44.7749C102.714 45.022 102.865 45.246 103.057 45.4328C103.249 45.6195 103.478 45.765 103.729 45.8601C104.004 45.9629 104.296 46.0137 104.59 46.0101C104.878 46.0111 105.163 45.9644 105.436 45.872C105.724 45.7714 105.989 45.6144 106.215 45.4103L106.839 46.2195C106.519 46.4691 106.155 46.6572 105.765 46.7741C105.365 46.8974 104.949 46.9607 104.53 46.9621M105.801 46.0767V43.8824H106.839V46.21L105.801 46.0767Z" fill="#444747"/>
<path d="M125.95 46.8715V41.031H126.852L130.551 45.5268H130.104V41.031H131.19V46.8715H130.289L126.59 42.3733H127.037V46.8715H125.95Z" fill="#444747"/>
</g>
</g>
</g>
<defs>
<clipPath id="clip0_6105_12480">
<rect width="134" height="47" fill="white"/>
</clipPath>
</defs>
</svg>
